G04 #@! TF.GenerationSoftware,KiCad,Pcbnew,(5.1.5)-3*
G04 #@! TF.CreationDate,2020-04-29T10:24:11+03:00*
G04 #@! TF.ProjectId,Single_transistor_AMP,53696e67-6c65-45f7-9472-616e73697374,V1.1*
G04 #@! TF.SameCoordinates,Original*
G04 #@! TF.FileFunction,Legend,Top*
G04 #@! TF.FilePolarity,Positive*
%FSLAX46Y46*%
G04 Gerber Fmt 4.6, Leading zero omitted, Abs format (unit mm)*
G04 Created by KiCad (PCBNEW (5.1.5)-3) date 2020-04-29 10:24:11*
%MOMM*%
%LPD*%
G04 APERTURE LIST*
%ADD10C,0.120000*%
%ADD11C,0.150000*%
G04 APERTURE END LIST*
D10*
X160582000Y-114784000D02*
X160582000Y-119324000D01*
X158442000Y-114784000D02*
X158442000Y-119324000D01*
X160582000Y-114784000D02*
X160567000Y-114784000D01*
X158457000Y-114784000D02*
X158442000Y-114784000D01*
X160582000Y-119324000D02*
X160567000Y-119324000D01*
X158457000Y-119324000D02*
X158442000Y-119324000D01*
X155348000Y-119604000D02*
X155348000Y-114664000D01*
X158088000Y-119604000D02*
X158088000Y-114664000D01*
X155348000Y-119604000D02*
X155663000Y-119604000D01*
X157773000Y-119604000D02*
X158088000Y-119604000D01*
X155348000Y-114664000D02*
X155663000Y-114664000D01*
X157773000Y-114664000D02*
X158088000Y-114664000D01*
X141224000Y-122174000D02*
X151384000Y-122174000D01*
X141224000Y-120904000D02*
X141224000Y-128524000D01*
X141224000Y-128524000D02*
X151384000Y-128524000D01*
X151384000Y-128524000D02*
X151384000Y-120904000D01*
X151384000Y-120904000D02*
X141224000Y-120904000D01*
X147066000Y-107442000D02*
X157226000Y-107442000D01*
X147066000Y-99822000D02*
X147066000Y-107442000D01*
X157226000Y-99822000D02*
X147066000Y-99822000D01*
X157226000Y-107442000D02*
X157226000Y-99822000D01*
X157226000Y-106172000D02*
X147066000Y-106172000D01*
X162052000Y-127254000D02*
X151892000Y-127254000D01*
X162052000Y-128524000D02*
X162052000Y-120904000D01*
X162052000Y-120904000D02*
X151892000Y-120904000D01*
X151892000Y-120904000D02*
X151892000Y-128524000D01*
X151892000Y-128524000D02*
X162052000Y-128524000D01*
X158568000Y-112290000D02*
X158568000Y-108690000D01*
X158556478Y-112328478D02*
G75*
G02X154118000Y-110490000I-1838478J1838478D01*
G01*
X158556478Y-108651522D02*
G75*
G03X154118000Y-110490000I-1838478J-1838478D01*
G01*
X141378000Y-117824000D02*
X144118000Y-117824000D01*
X144118000Y-117824000D02*
X144118000Y-111284000D01*
X144118000Y-111284000D02*
X141378000Y-111284000D01*
X141378000Y-111284000D02*
X141378000Y-117824000D01*
X142748000Y-118594000D02*
X142748000Y-117824000D01*
X142748000Y-110514000D02*
X142748000Y-111284000D01*
X144426000Y-117824000D02*
X147166000Y-117824000D01*
X147166000Y-117824000D02*
X147166000Y-111284000D01*
X147166000Y-111284000D02*
X144426000Y-111284000D01*
X144426000Y-111284000D02*
X144426000Y-117824000D01*
X145796000Y-118594000D02*
X145796000Y-117824000D01*
X145796000Y-110514000D02*
X145796000Y-111284000D01*
X148844000Y-118594000D02*
X148844000Y-117824000D01*
X148844000Y-110514000D02*
X148844000Y-111284000D01*
X150214000Y-117824000D02*
X150214000Y-111284000D01*
X147474000Y-117824000D02*
X150214000Y-117824000D01*
X147474000Y-111284000D02*
X147474000Y-117824000D01*
X150214000Y-111284000D02*
X147474000Y-111284000D01*
X151892000Y-118594000D02*
X151892000Y-117824000D01*
X151892000Y-110514000D02*
X151892000Y-111284000D01*
X153262000Y-117824000D02*
X153262000Y-111284000D01*
X150522000Y-117824000D02*
X153262000Y-117824000D01*
X150522000Y-111284000D02*
X150522000Y-117824000D01*
X153262000Y-111284000D02*
X150522000Y-111284000D01*
D11*
X161901142Y-117260666D02*
X161948761Y-117308285D01*
X161996380Y-117451142D01*
X161996380Y-117546380D01*
X161948761Y-117689238D01*
X161853523Y-117784476D01*
X161758285Y-117832095D01*
X161567809Y-117879714D01*
X161424952Y-117879714D01*
X161234476Y-117832095D01*
X161139238Y-117784476D01*
X161044000Y-117689238D01*
X160996380Y-117546380D01*
X160996380Y-117451142D01*
X161044000Y-117308285D01*
X161091619Y-117260666D01*
X161996380Y-116308285D02*
X161996380Y-116879714D01*
X161996380Y-116594000D02*
X160996380Y-116594000D01*
X161139238Y-116689238D01*
X161234476Y-116784476D01*
X161282095Y-116879714D01*
X154789142Y-117260666D02*
X154836761Y-117308285D01*
X154884380Y-117451142D01*
X154884380Y-117546380D01*
X154836761Y-117689238D01*
X154741523Y-117784476D01*
X154646285Y-117832095D01*
X154455809Y-117879714D01*
X154312952Y-117879714D01*
X154122476Y-117832095D01*
X154027238Y-117784476D01*
X153932000Y-117689238D01*
X153884380Y-117546380D01*
X153884380Y-117451142D01*
X153932000Y-117308285D01*
X153979619Y-117260666D01*
X153979619Y-116879714D02*
X153932000Y-116832095D01*
X153884380Y-116736857D01*
X153884380Y-116498761D01*
X153932000Y-116403523D01*
X153979619Y-116355904D01*
X154074857Y-116308285D01*
X154170095Y-116308285D01*
X154312952Y-116355904D01*
X154884380Y-116927333D01*
X154884380Y-116308285D01*
X149780666Y-127214380D02*
X149780666Y-127928666D01*
X149733047Y-128071523D01*
X149637809Y-128166761D01*
X149494952Y-128214380D01*
X149399714Y-128214380D01*
X150780666Y-128214380D02*
X150209238Y-128214380D01*
X150494952Y-128214380D02*
X150494952Y-127214380D01*
X150399714Y-127357238D01*
X150304476Y-127452476D01*
X150209238Y-127500095D01*
X141748095Y-128214380D02*
X141938571Y-128214380D01*
X142033809Y-128166761D01*
X142081428Y-128119142D01*
X142176666Y-127976285D01*
X142224285Y-127785809D01*
X142224285Y-127404857D01*
X142176666Y-127309619D01*
X142129047Y-127262000D01*
X142033809Y-127214380D01*
X141843333Y-127214380D01*
X141748095Y-127262000D01*
X141700476Y-127309619D01*
X141652857Y-127404857D01*
X141652857Y-127642952D01*
X141700476Y-127738190D01*
X141748095Y-127785809D01*
X141843333Y-127833428D01*
X142033809Y-127833428D01*
X142129047Y-127785809D01*
X142176666Y-127738190D01*
X142224285Y-127642952D01*
X142510000Y-127214380D02*
X142843333Y-128214380D01*
X143176666Y-127214380D01*
X143271904Y-128309619D02*
X144033809Y-128309619D01*
X144271904Y-128214380D02*
X144271904Y-127214380D01*
X144748095Y-128214380D02*
X144748095Y-127214380D01*
X145319523Y-128214380D01*
X145319523Y-127214380D01*
X157908666Y-100156380D02*
X157908666Y-100870666D01*
X157861047Y-101013523D01*
X157765809Y-101108761D01*
X157622952Y-101156380D01*
X157527714Y-101156380D01*
X158337238Y-100251619D02*
X158384857Y-100204000D01*
X158480095Y-100156380D01*
X158718190Y-100156380D01*
X158813428Y-100204000D01*
X158861047Y-100251619D01*
X158908666Y-100346857D01*
X158908666Y-100442095D01*
X158861047Y-100584952D01*
X158289619Y-101156380D01*
X158908666Y-101156380D01*
X147776666Y-101108761D02*
X147919523Y-101156380D01*
X148157619Y-101156380D01*
X148252857Y-101108761D01*
X148300476Y-101061142D01*
X148348095Y-100965904D01*
X148348095Y-100870666D01*
X148300476Y-100775428D01*
X148252857Y-100727809D01*
X148157619Y-100680190D01*
X147967142Y-100632571D01*
X147871904Y-100584952D01*
X147824285Y-100537333D01*
X147776666Y-100442095D01*
X147776666Y-100346857D01*
X147824285Y-100251619D01*
X147871904Y-100204000D01*
X147967142Y-100156380D01*
X148205238Y-100156380D01*
X148348095Y-100204000D01*
X148776666Y-101156380D02*
X148776666Y-100156380D01*
X149776666Y-100204000D02*
X149681428Y-100156380D01*
X149538571Y-100156380D01*
X149395714Y-100204000D01*
X149300476Y-100299238D01*
X149252857Y-100394476D01*
X149205238Y-100584952D01*
X149205238Y-100727809D01*
X149252857Y-100918285D01*
X149300476Y-101013523D01*
X149395714Y-101108761D01*
X149538571Y-101156380D01*
X149633809Y-101156380D01*
X149776666Y-101108761D01*
X149824285Y-101061142D01*
X149824285Y-100727809D01*
X149633809Y-100727809D01*
X150014761Y-101251619D02*
X150776666Y-101251619D01*
X151205238Y-100156380D02*
X151395714Y-100156380D01*
X151490952Y-100204000D01*
X151586190Y-100299238D01*
X151633809Y-100489714D01*
X151633809Y-100823047D01*
X151586190Y-101013523D01*
X151490952Y-101108761D01*
X151395714Y-101156380D01*
X151205238Y-101156380D01*
X151110000Y-101108761D01*
X151014761Y-101013523D01*
X150967142Y-100823047D01*
X150967142Y-100489714D01*
X151014761Y-100299238D01*
X151110000Y-100204000D01*
X151205238Y-100156380D01*
X152062380Y-100156380D02*
X152062380Y-100965904D01*
X152110000Y-101061142D01*
X152157619Y-101108761D01*
X152252857Y-101156380D01*
X152443333Y-101156380D01*
X152538571Y-101108761D01*
X152586190Y-101061142D01*
X152633809Y-100965904D01*
X152633809Y-100156380D01*
X152967142Y-100156380D02*
X153538571Y-100156380D01*
X153252857Y-101156380D02*
X153252857Y-100156380D01*
X161210666Y-119340380D02*
X161210666Y-120054666D01*
X161163047Y-120197523D01*
X161067809Y-120292761D01*
X160924952Y-120340380D01*
X160829714Y-120340380D01*
X161591619Y-119340380D02*
X162210666Y-119340380D01*
X161877333Y-119721333D01*
X162020190Y-119721333D01*
X162115428Y-119768952D01*
X162163047Y-119816571D01*
X162210666Y-119911809D01*
X162210666Y-120149904D01*
X162163047Y-120245142D01*
X162115428Y-120292761D01*
X162020190Y-120340380D01*
X161734476Y-120340380D01*
X161639238Y-120292761D01*
X161591619Y-120245142D01*
X152519333Y-122070761D02*
X152662190Y-122118380D01*
X152900285Y-122118380D01*
X152995523Y-122070761D01*
X153043142Y-122023142D01*
X153090761Y-121927904D01*
X153090761Y-121832666D01*
X153043142Y-121737428D01*
X152995523Y-121689809D01*
X152900285Y-121642190D01*
X152709809Y-121594571D01*
X152614571Y-121546952D01*
X152566952Y-121499333D01*
X152519333Y-121404095D01*
X152519333Y-121308857D01*
X152566952Y-121213619D01*
X152614571Y-121166000D01*
X152709809Y-121118380D01*
X152947904Y-121118380D01*
X153090761Y-121166000D01*
X153519333Y-122118380D02*
X153519333Y-121118380D01*
X154519333Y-121166000D02*
X154424095Y-121118380D01*
X154281238Y-121118380D01*
X154138380Y-121166000D01*
X154043142Y-121261238D01*
X153995523Y-121356476D01*
X153947904Y-121546952D01*
X153947904Y-121689809D01*
X153995523Y-121880285D01*
X154043142Y-121975523D01*
X154138380Y-122070761D01*
X154281238Y-122118380D01*
X154376476Y-122118380D01*
X154519333Y-122070761D01*
X154566952Y-122023142D01*
X154566952Y-121689809D01*
X154376476Y-121689809D01*
X154757428Y-122213619D02*
X155519333Y-122213619D01*
X155757428Y-122118380D02*
X155757428Y-121118380D01*
X156233619Y-122118380D02*
X156233619Y-121118380D01*
X156805047Y-122118380D01*
X156805047Y-121118380D01*
X158400761Y-107481619D02*
X158305523Y-107434000D01*
X158210285Y-107338761D01*
X158067428Y-107195904D01*
X157972190Y-107148285D01*
X157876952Y-107148285D01*
X157924571Y-107386380D02*
X157829333Y-107338761D01*
X157734095Y-107243523D01*
X157686476Y-107053047D01*
X157686476Y-106719714D01*
X157734095Y-106529238D01*
X157829333Y-106434000D01*
X157924571Y-106386380D01*
X158115047Y-106386380D01*
X158210285Y-106434000D01*
X158305523Y-106529238D01*
X158353142Y-106719714D01*
X158353142Y-107053047D01*
X158305523Y-107243523D01*
X158210285Y-107338761D01*
X158115047Y-107386380D01*
X157924571Y-107386380D01*
X159305523Y-107386380D02*
X158734095Y-107386380D01*
X159019809Y-107386380D02*
X159019809Y-106386380D01*
X158924571Y-106529238D01*
X158829333Y-106624476D01*
X158734095Y-106672095D01*
X142835333Y-108402380D02*
X142502000Y-107926190D01*
X142263904Y-108402380D02*
X142263904Y-107402380D01*
X142644857Y-107402380D01*
X142740095Y-107450000D01*
X142787714Y-107497619D01*
X142835333Y-107592857D01*
X142835333Y-107735714D01*
X142787714Y-107830952D01*
X142740095Y-107878571D01*
X142644857Y-107926190D01*
X142263904Y-107926190D01*
X143787714Y-108402380D02*
X143216285Y-108402380D01*
X143502000Y-108402380D02*
X143502000Y-107402380D01*
X143406761Y-107545238D01*
X143311523Y-107640476D01*
X143216285Y-107688095D01*
X145883333Y-108402380D02*
X145550000Y-107926190D01*
X145311904Y-108402380D02*
X145311904Y-107402380D01*
X145692857Y-107402380D01*
X145788095Y-107450000D01*
X145835714Y-107497619D01*
X145883333Y-107592857D01*
X145883333Y-107735714D01*
X145835714Y-107830952D01*
X145788095Y-107878571D01*
X145692857Y-107926190D01*
X145311904Y-107926190D01*
X146264285Y-107497619D02*
X146311904Y-107450000D01*
X146407142Y-107402380D01*
X146645238Y-107402380D01*
X146740476Y-107450000D01*
X146788095Y-107497619D01*
X146835714Y-107592857D01*
X146835714Y-107688095D01*
X146788095Y-107830952D01*
X146216666Y-108402380D01*
X146835714Y-108402380D01*
X148931333Y-108402380D02*
X148598000Y-107926190D01*
X148359904Y-108402380D02*
X148359904Y-107402380D01*
X148740857Y-107402380D01*
X148836095Y-107450000D01*
X148883714Y-107497619D01*
X148931333Y-107592857D01*
X148931333Y-107735714D01*
X148883714Y-107830952D01*
X148836095Y-107878571D01*
X148740857Y-107926190D01*
X148359904Y-107926190D01*
X149264666Y-107402380D02*
X149883714Y-107402380D01*
X149550380Y-107783333D01*
X149693238Y-107783333D01*
X149788476Y-107830952D01*
X149836095Y-107878571D01*
X149883714Y-107973809D01*
X149883714Y-108211904D01*
X149836095Y-108307142D01*
X149788476Y-108354761D01*
X149693238Y-108402380D01*
X149407523Y-108402380D01*
X149312285Y-108354761D01*
X149264666Y-108307142D01*
X151979333Y-108402380D02*
X151646000Y-107926190D01*
X151407904Y-108402380D02*
X151407904Y-107402380D01*
X151788857Y-107402380D01*
X151884095Y-107450000D01*
X151931714Y-107497619D01*
X151979333Y-107592857D01*
X151979333Y-107735714D01*
X151931714Y-107830952D01*
X151884095Y-107878571D01*
X151788857Y-107926190D01*
X151407904Y-107926190D01*
X152836476Y-107735714D02*
X152836476Y-108402380D01*
X152598380Y-107354761D02*
X152360285Y-108069047D01*
X152979333Y-108069047D01*
M02*
