G04 #@! TF.GenerationSoftware,KiCad,Pcbnew,(5.1.5)-3*
G04 #@! TF.CreationDate,2020-04-29T10:24:11+03:00*
G04 #@! TF.ProjectId,Single_transistor_AMP,53696e67-6c65-45f7-9472-616e73697374,V1.1*
G04 #@! TF.SameCoordinates,Original*
G04 #@! TF.FileFunction,Soldermask,Bot*
G04 #@! TF.FilePolarity,Negative*
%FSLAX46Y46*%
G04 Gerber Fmt 4.6, Leading zero omitted, Abs format (unit mm)*
G04 Created by KiCad (PCBNEW (5.1.5)-3) date 2020-04-29 10:24:11*
%MOMM*%
%LPD*%
G04 APERTURE LIST*
%ADD10C,0.100000*%
G04 APERTURE END LIST*
D10*
G36*
X159814585Y-123192802D02*
G01*
X159964410Y-123222604D01*
X160246674Y-123339521D01*
X160500705Y-123509259D01*
X160716741Y-123725295D01*
X160886479Y-123979326D01*
X161003396Y-124261590D01*
X161063000Y-124561240D01*
X161063000Y-124866760D01*
X161003396Y-125166410D01*
X160886479Y-125448674D01*
X160716741Y-125702705D01*
X160500705Y-125918741D01*
X160246674Y-126088479D01*
X159964410Y-126205396D01*
X159814585Y-126235198D01*
X159664761Y-126265000D01*
X159359239Y-126265000D01*
X159209415Y-126235198D01*
X159059590Y-126205396D01*
X158777326Y-126088479D01*
X158523295Y-125918741D01*
X158307259Y-125702705D01*
X158137521Y-125448674D01*
X158020604Y-125166410D01*
X157961000Y-124866760D01*
X157961000Y-124561240D01*
X158020604Y-124261590D01*
X158137521Y-123979326D01*
X158307259Y-123725295D01*
X158523295Y-123509259D01*
X158777326Y-123339521D01*
X159059590Y-123222604D01*
X159209415Y-123192802D01*
X159359239Y-123163000D01*
X159664761Y-123163000D01*
X159814585Y-123192802D01*
G37*
G36*
X150395000Y-126265000D02*
G01*
X147293000Y-126265000D01*
X147293000Y-123163000D01*
X150395000Y-123163000D01*
X150395000Y-126265000D01*
G37*
G36*
X144066585Y-123192802D02*
G01*
X144216410Y-123222604D01*
X144498674Y-123339521D01*
X144752705Y-123509259D01*
X144968741Y-123725295D01*
X145138479Y-123979326D01*
X145255396Y-124261590D01*
X145315000Y-124561240D01*
X145315000Y-124866760D01*
X145255396Y-125166410D01*
X145138479Y-125448674D01*
X144968741Y-125702705D01*
X144752705Y-125918741D01*
X144498674Y-126088479D01*
X144216410Y-126205396D01*
X144066585Y-126235198D01*
X143916761Y-126265000D01*
X143611239Y-126265000D01*
X143461415Y-126235198D01*
X143311590Y-126205396D01*
X143029326Y-126088479D01*
X142775295Y-125918741D01*
X142559259Y-125702705D01*
X142389521Y-125448674D01*
X142272604Y-125166410D01*
X142213000Y-124866760D01*
X142213000Y-124561240D01*
X142272604Y-124261590D01*
X142389521Y-123979326D01*
X142559259Y-123725295D01*
X142775295Y-123509259D01*
X143029326Y-123339521D01*
X143311590Y-123222604D01*
X143461415Y-123192802D01*
X143611239Y-123163000D01*
X143916761Y-123163000D01*
X144066585Y-123192802D01*
G37*
G36*
X155983000Y-126265000D02*
G01*
X152881000Y-126265000D01*
X152881000Y-123163000D01*
X155983000Y-123163000D01*
X155983000Y-126265000D01*
G37*
G36*
X149092228Y-118815703D02*
G01*
X149247100Y-118879853D01*
X149386481Y-118972985D01*
X149505015Y-119091519D01*
X149598147Y-119230900D01*
X149662297Y-119385772D01*
X149695000Y-119550184D01*
X149695000Y-119717816D01*
X149662297Y-119882228D01*
X149598147Y-120037100D01*
X149505015Y-120176481D01*
X149386481Y-120295015D01*
X149247100Y-120388147D01*
X149092228Y-120452297D01*
X148927816Y-120485000D01*
X148760184Y-120485000D01*
X148595772Y-120452297D01*
X148440900Y-120388147D01*
X148301519Y-120295015D01*
X148182985Y-120176481D01*
X148089853Y-120037100D01*
X148025703Y-119882228D01*
X147993000Y-119717816D01*
X147993000Y-119550184D01*
X148025703Y-119385772D01*
X148089853Y-119230900D01*
X148182985Y-119091519D01*
X148301519Y-118972985D01*
X148440900Y-118879853D01*
X148595772Y-118815703D01*
X148760184Y-118783000D01*
X148927816Y-118783000D01*
X149092228Y-118815703D01*
G37*
G36*
X146044228Y-118815703D02*
G01*
X146199100Y-118879853D01*
X146338481Y-118972985D01*
X146457015Y-119091519D01*
X146550147Y-119230900D01*
X146614297Y-119385772D01*
X146647000Y-119550184D01*
X146647000Y-119717816D01*
X146614297Y-119882228D01*
X146550147Y-120037100D01*
X146457015Y-120176481D01*
X146338481Y-120295015D01*
X146199100Y-120388147D01*
X146044228Y-120452297D01*
X145879816Y-120485000D01*
X145712184Y-120485000D01*
X145547772Y-120452297D01*
X145392900Y-120388147D01*
X145253519Y-120295015D01*
X145134985Y-120176481D01*
X145041853Y-120037100D01*
X144977703Y-119882228D01*
X144945000Y-119717816D01*
X144945000Y-119550184D01*
X144977703Y-119385772D01*
X145041853Y-119230900D01*
X145134985Y-119091519D01*
X145253519Y-118972985D01*
X145392900Y-118879853D01*
X145547772Y-118815703D01*
X145712184Y-118783000D01*
X145879816Y-118783000D01*
X146044228Y-118815703D01*
G37*
G36*
X142996228Y-118815703D02*
G01*
X143151100Y-118879853D01*
X143290481Y-118972985D01*
X143409015Y-119091519D01*
X143502147Y-119230900D01*
X143566297Y-119385772D01*
X143599000Y-119550184D01*
X143599000Y-119717816D01*
X143566297Y-119882228D01*
X143502147Y-120037100D01*
X143409015Y-120176481D01*
X143290481Y-120295015D01*
X143151100Y-120388147D01*
X142996228Y-120452297D01*
X142831816Y-120485000D01*
X142664184Y-120485000D01*
X142499772Y-120452297D01*
X142344900Y-120388147D01*
X142205519Y-120295015D01*
X142086985Y-120176481D01*
X141993853Y-120037100D01*
X141929703Y-119882228D01*
X141897000Y-119717816D01*
X141897000Y-119550184D01*
X141929703Y-119385772D01*
X141993853Y-119230900D01*
X142086985Y-119091519D01*
X142205519Y-118972985D01*
X142344900Y-118879853D01*
X142499772Y-118815703D01*
X142664184Y-118783000D01*
X142831816Y-118783000D01*
X142996228Y-118815703D01*
G37*
G36*
X152140228Y-118815703D02*
G01*
X152295100Y-118879853D01*
X152434481Y-118972985D01*
X152553015Y-119091519D01*
X152646147Y-119230900D01*
X152710297Y-119385772D01*
X152743000Y-119550184D01*
X152743000Y-119717816D01*
X152710297Y-119882228D01*
X152646147Y-120037100D01*
X152553015Y-120176481D01*
X152434481Y-120295015D01*
X152295100Y-120388147D01*
X152140228Y-120452297D01*
X151975816Y-120485000D01*
X151808184Y-120485000D01*
X151643772Y-120452297D01*
X151488900Y-120388147D01*
X151349519Y-120295015D01*
X151230985Y-120176481D01*
X151137853Y-120037100D01*
X151073703Y-119882228D01*
X151041000Y-119717816D01*
X151041000Y-119550184D01*
X151073703Y-119385772D01*
X151137853Y-119230900D01*
X151230985Y-119091519D01*
X151349519Y-118972985D01*
X151488900Y-118879853D01*
X151643772Y-118815703D01*
X151808184Y-118783000D01*
X151975816Y-118783000D01*
X152140228Y-118815703D01*
G37*
G36*
X156966228Y-118815703D02*
G01*
X157121100Y-118879853D01*
X157260481Y-118972985D01*
X157379015Y-119091519D01*
X157472147Y-119230900D01*
X157536297Y-119385772D01*
X157569000Y-119550184D01*
X157569000Y-119717816D01*
X157536297Y-119882228D01*
X157472147Y-120037100D01*
X157379015Y-120176481D01*
X157260481Y-120295015D01*
X157121100Y-120388147D01*
X156966228Y-120452297D01*
X156801816Y-120485000D01*
X156634184Y-120485000D01*
X156469772Y-120452297D01*
X156314900Y-120388147D01*
X156175519Y-120295015D01*
X156056985Y-120176481D01*
X155963853Y-120037100D01*
X155899703Y-119882228D01*
X155867000Y-119717816D01*
X155867000Y-119550184D01*
X155899703Y-119385772D01*
X155963853Y-119230900D01*
X156056985Y-119091519D01*
X156175519Y-118972985D01*
X156314900Y-118879853D01*
X156469772Y-118815703D01*
X156634184Y-118783000D01*
X156801816Y-118783000D01*
X156966228Y-118815703D01*
G37*
G36*
X159760228Y-118735703D02*
G01*
X159915100Y-118799853D01*
X160054481Y-118892985D01*
X160173015Y-119011519D01*
X160266147Y-119150900D01*
X160330297Y-119305772D01*
X160363000Y-119470184D01*
X160363000Y-119637816D01*
X160330297Y-119802228D01*
X160266147Y-119957100D01*
X160173015Y-120096481D01*
X160054481Y-120215015D01*
X159915100Y-120308147D01*
X159760228Y-120372297D01*
X159595816Y-120405000D01*
X159428184Y-120405000D01*
X159263772Y-120372297D01*
X159108900Y-120308147D01*
X158969519Y-120215015D01*
X158850985Y-120096481D01*
X158757853Y-119957100D01*
X158693703Y-119802228D01*
X158661000Y-119637816D01*
X158661000Y-119470184D01*
X158693703Y-119305772D01*
X158757853Y-119150900D01*
X158850985Y-119011519D01*
X158969519Y-118892985D01*
X159108900Y-118799853D01*
X159263772Y-118735703D01*
X159428184Y-118703000D01*
X159595816Y-118703000D01*
X159760228Y-118735703D01*
G37*
G36*
X156966228Y-113815703D02*
G01*
X157121100Y-113879853D01*
X157260481Y-113972985D01*
X157379015Y-114091519D01*
X157472147Y-114230900D01*
X157536297Y-114385772D01*
X157569000Y-114550184D01*
X157569000Y-114717816D01*
X157536297Y-114882228D01*
X157472147Y-115037100D01*
X157379015Y-115176481D01*
X157260481Y-115295015D01*
X157121100Y-115388147D01*
X156966228Y-115452297D01*
X156801816Y-115485000D01*
X156634184Y-115485000D01*
X156469772Y-115452297D01*
X156314900Y-115388147D01*
X156175519Y-115295015D01*
X156056985Y-115176481D01*
X155963853Y-115037100D01*
X155899703Y-114882228D01*
X155867000Y-114717816D01*
X155867000Y-114550184D01*
X155899703Y-114385772D01*
X155963853Y-114230900D01*
X156056985Y-114091519D01*
X156175519Y-113972985D01*
X156314900Y-113879853D01*
X156469772Y-113815703D01*
X156634184Y-113783000D01*
X156801816Y-113783000D01*
X156966228Y-113815703D01*
G37*
G36*
X159760228Y-113735703D02*
G01*
X159915100Y-113799853D01*
X160054481Y-113892985D01*
X160173015Y-114011519D01*
X160266147Y-114150900D01*
X160330297Y-114305772D01*
X160363000Y-114470184D01*
X160363000Y-114637816D01*
X160330297Y-114802228D01*
X160266147Y-114957100D01*
X160173015Y-115096481D01*
X160054481Y-115215015D01*
X159915100Y-115308147D01*
X159760228Y-115372297D01*
X159595816Y-115405000D01*
X159428184Y-115405000D01*
X159263772Y-115372297D01*
X159108900Y-115308147D01*
X158969519Y-115215015D01*
X158850985Y-115096481D01*
X158757853Y-114957100D01*
X158693703Y-114802228D01*
X158661000Y-114637816D01*
X158661000Y-114470184D01*
X158693703Y-114305772D01*
X158757853Y-114150900D01*
X158850985Y-114011519D01*
X158969519Y-113892985D01*
X159108900Y-113799853D01*
X159263772Y-113735703D01*
X159428184Y-113703000D01*
X159595816Y-113703000D01*
X159760228Y-113735703D01*
G37*
G36*
X157055916Y-108652334D02*
G01*
X157164492Y-108685271D01*
X157164495Y-108685272D01*
X157200601Y-108704571D01*
X157264557Y-108738756D01*
X157352264Y-108810736D01*
X157424244Y-108898443D01*
X157458429Y-108962399D01*
X157477728Y-108998505D01*
X157477729Y-108998508D01*
X157510666Y-109107084D01*
X157521787Y-109220000D01*
X157510666Y-109332916D01*
X157477729Y-109441492D01*
X157477728Y-109441495D01*
X157458429Y-109477601D01*
X157424244Y-109541557D01*
X157352264Y-109629264D01*
X157264557Y-109701244D01*
X157183141Y-109744761D01*
X157162766Y-109758375D01*
X157145439Y-109775702D01*
X157131826Y-109796076D01*
X157122448Y-109818715D01*
X157117668Y-109842748D01*
X157117668Y-109867252D01*
X157122448Y-109891285D01*
X157131826Y-109913924D01*
X157145440Y-109934299D01*
X157162767Y-109951626D01*
X157183141Y-109965239D01*
X157264557Y-110008756D01*
X157352264Y-110080736D01*
X157424244Y-110168443D01*
X157456156Y-110228147D01*
X157477728Y-110268505D01*
X157477729Y-110268508D01*
X157510666Y-110377084D01*
X157521787Y-110490000D01*
X157510666Y-110602916D01*
X157477729Y-110711492D01*
X157477728Y-110711495D01*
X157458429Y-110747601D01*
X157424244Y-110811557D01*
X157352264Y-110899264D01*
X157275354Y-110962383D01*
X157258035Y-110979702D01*
X157244421Y-111000077D01*
X157235043Y-111022716D01*
X157230263Y-111046749D01*
X157230263Y-111071253D01*
X157235043Y-111095286D01*
X157244421Y-111117925D01*
X157258034Y-111138299D01*
X157275361Y-111155626D01*
X157295736Y-111169240D01*
X157318375Y-111178618D01*
X157342408Y-111183398D01*
X157354660Y-111184000D01*
X157519000Y-111184000D01*
X157519000Y-112336000D01*
X155917000Y-112336000D01*
X155917000Y-111184000D01*
X156081340Y-111184000D01*
X156105726Y-111181598D01*
X156129175Y-111174485D01*
X156150786Y-111162934D01*
X156169728Y-111147389D01*
X156185273Y-111128447D01*
X156196824Y-111106836D01*
X156203937Y-111083387D01*
X156206339Y-111059001D01*
X156203937Y-111034615D01*
X156196824Y-111011166D01*
X156185273Y-110989555D01*
X156169728Y-110970613D01*
X156160655Y-110962391D01*
X156083736Y-110899264D01*
X156011756Y-110811557D01*
X155977571Y-110747601D01*
X155958272Y-110711495D01*
X155958271Y-110711492D01*
X155925334Y-110602916D01*
X155914213Y-110490000D01*
X155925334Y-110377084D01*
X155958271Y-110268508D01*
X155958272Y-110268505D01*
X155979844Y-110228147D01*
X156011756Y-110168443D01*
X156083736Y-110080736D01*
X156171443Y-110008756D01*
X156252859Y-109965239D01*
X156273234Y-109951625D01*
X156290561Y-109934298D01*
X156304174Y-109913924D01*
X156313552Y-109891285D01*
X156318332Y-109867252D01*
X156318332Y-109842748D01*
X156313552Y-109818715D01*
X156304174Y-109796076D01*
X156290560Y-109775701D01*
X156273233Y-109758374D01*
X156252859Y-109744761D01*
X156171443Y-109701244D01*
X156083736Y-109629264D01*
X156011756Y-109541557D01*
X155977571Y-109477601D01*
X155958272Y-109441495D01*
X155958271Y-109441492D01*
X155925334Y-109332916D01*
X155914213Y-109220000D01*
X155925334Y-109107084D01*
X155958271Y-108998508D01*
X155958272Y-108998505D01*
X155977571Y-108962399D01*
X156011756Y-108898443D01*
X156083736Y-108810736D01*
X156171443Y-108738756D01*
X156235399Y-108704571D01*
X156271505Y-108685272D01*
X156271508Y-108685271D01*
X156380084Y-108652334D01*
X156464702Y-108644000D01*
X156971298Y-108644000D01*
X157055916Y-108652334D01*
G37*
G36*
X152140228Y-108655703D02*
G01*
X152295100Y-108719853D01*
X152434481Y-108812985D01*
X152553015Y-108931519D01*
X152646147Y-109070900D01*
X152710297Y-109225772D01*
X152743000Y-109390184D01*
X152743000Y-109557816D01*
X152710297Y-109722228D01*
X152646147Y-109877100D01*
X152553015Y-110016481D01*
X152434481Y-110135015D01*
X152295100Y-110228147D01*
X152140228Y-110292297D01*
X151975816Y-110325000D01*
X151808184Y-110325000D01*
X151643772Y-110292297D01*
X151488900Y-110228147D01*
X151349519Y-110135015D01*
X151230985Y-110016481D01*
X151137853Y-109877100D01*
X151073703Y-109722228D01*
X151041000Y-109557816D01*
X151041000Y-109390184D01*
X151073703Y-109225772D01*
X151137853Y-109070900D01*
X151230985Y-108931519D01*
X151349519Y-108812985D01*
X151488900Y-108719853D01*
X151643772Y-108655703D01*
X151808184Y-108623000D01*
X151975816Y-108623000D01*
X152140228Y-108655703D01*
G37*
G36*
X149092228Y-108655703D02*
G01*
X149247100Y-108719853D01*
X149386481Y-108812985D01*
X149505015Y-108931519D01*
X149598147Y-109070900D01*
X149662297Y-109225772D01*
X149695000Y-109390184D01*
X149695000Y-109557816D01*
X149662297Y-109722228D01*
X149598147Y-109877100D01*
X149505015Y-110016481D01*
X149386481Y-110135015D01*
X149247100Y-110228147D01*
X149092228Y-110292297D01*
X148927816Y-110325000D01*
X148760184Y-110325000D01*
X148595772Y-110292297D01*
X148440900Y-110228147D01*
X148301519Y-110135015D01*
X148182985Y-110016481D01*
X148089853Y-109877100D01*
X148025703Y-109722228D01*
X147993000Y-109557816D01*
X147993000Y-109390184D01*
X148025703Y-109225772D01*
X148089853Y-109070900D01*
X148182985Y-108931519D01*
X148301519Y-108812985D01*
X148440900Y-108719853D01*
X148595772Y-108655703D01*
X148760184Y-108623000D01*
X148927816Y-108623000D01*
X149092228Y-108655703D01*
G37*
G36*
X146044228Y-108655703D02*
G01*
X146199100Y-108719853D01*
X146338481Y-108812985D01*
X146457015Y-108931519D01*
X146550147Y-109070900D01*
X146614297Y-109225772D01*
X146647000Y-109390184D01*
X146647000Y-109557816D01*
X146614297Y-109722228D01*
X146550147Y-109877100D01*
X146457015Y-110016481D01*
X146338481Y-110135015D01*
X146199100Y-110228147D01*
X146044228Y-110292297D01*
X145879816Y-110325000D01*
X145712184Y-110325000D01*
X145547772Y-110292297D01*
X145392900Y-110228147D01*
X145253519Y-110135015D01*
X145134985Y-110016481D01*
X145041853Y-109877100D01*
X144977703Y-109722228D01*
X144945000Y-109557816D01*
X144945000Y-109390184D01*
X144977703Y-109225772D01*
X145041853Y-109070900D01*
X145134985Y-108931519D01*
X145253519Y-108812985D01*
X145392900Y-108719853D01*
X145547772Y-108655703D01*
X145712184Y-108623000D01*
X145879816Y-108623000D01*
X146044228Y-108655703D01*
G37*
G36*
X142996228Y-108655703D02*
G01*
X143151100Y-108719853D01*
X143290481Y-108812985D01*
X143409015Y-108931519D01*
X143502147Y-109070900D01*
X143566297Y-109225772D01*
X143599000Y-109390184D01*
X143599000Y-109557816D01*
X143566297Y-109722228D01*
X143502147Y-109877100D01*
X143409015Y-110016481D01*
X143290481Y-110135015D01*
X143151100Y-110228147D01*
X142996228Y-110292297D01*
X142831816Y-110325000D01*
X142664184Y-110325000D01*
X142499772Y-110292297D01*
X142344900Y-110228147D01*
X142205519Y-110135015D01*
X142086985Y-110016481D01*
X141993853Y-109877100D01*
X141929703Y-109722228D01*
X141897000Y-109557816D01*
X141897000Y-109390184D01*
X141929703Y-109225772D01*
X141993853Y-109070900D01*
X142086985Y-108931519D01*
X142205519Y-108812985D01*
X142344900Y-108719853D01*
X142499772Y-108655703D01*
X142664184Y-108623000D01*
X142831816Y-108623000D01*
X142996228Y-108655703D01*
G37*
G36*
X151157000Y-105183000D02*
G01*
X148055000Y-105183000D01*
X148055000Y-102081000D01*
X151157000Y-102081000D01*
X151157000Y-105183000D01*
G37*
G36*
X154988585Y-102110802D02*
G01*
X155138410Y-102140604D01*
X155420674Y-102257521D01*
X155674705Y-102427259D01*
X155890741Y-102643295D01*
X156060479Y-102897326D01*
X156177396Y-103179590D01*
X156237000Y-103479240D01*
X156237000Y-103784760D01*
X156177396Y-104084410D01*
X156060479Y-104366674D01*
X155890741Y-104620705D01*
X155674705Y-104836741D01*
X155420674Y-105006479D01*
X155138410Y-105123396D01*
X154988585Y-105153198D01*
X154838761Y-105183000D01*
X154533239Y-105183000D01*
X154383415Y-105153198D01*
X154233590Y-105123396D01*
X153951326Y-105006479D01*
X153697295Y-104836741D01*
X153481259Y-104620705D01*
X153311521Y-104366674D01*
X153194604Y-104084410D01*
X153135000Y-103784760D01*
X153135000Y-103479240D01*
X153194604Y-103179590D01*
X153311521Y-102897326D01*
X153481259Y-102643295D01*
X153697295Y-102427259D01*
X153951326Y-102257521D01*
X154233590Y-102140604D01*
X154383415Y-102110802D01*
X154533239Y-102081000D01*
X154838761Y-102081000D01*
X154988585Y-102110802D01*
G37*
M02*
