M48
; DRILL file {KiCad (5.1.5)-3} date 29/04/2020 10:24:18
; FORMAT={-:-/ absolute / inch / decimal}
; #@! TF.CreationDate,2020-04-29T10:24:18+03:00
; #@! TF.GenerationSoftware,Kicad,Pcbnew,(5.1.5)-3
; #@! TF.FileFunction,Plated,1,2,PTH
FMAT,2
INCH
T1C0.0295
T2C0.0315
T3C0.0598
%
G90
G05
T1
X6.17Y-4.3
X6.17Y-4.35
X6.17Y-4.4
T2
X5.74Y-4.31
X5.74Y-4.71
X6.17Y-4.5131
X6.17Y-4.71
X5.62Y-4.31
X5.62Y-4.71
X5.98Y-4.31
X5.98Y-4.71
X5.86Y-4.31
X5.86Y-4.71
X6.28Y-4.51
X6.28Y-4.7069
T3
X6.08Y-4.91
X6.28Y-4.91
X5.66Y-4.91
X5.86Y-4.91
X5.89Y-4.08
X6.09Y-4.08
T0
M30
